<?xml version="1.0" encoding="utf-8"?>
<!-- Generator: Adobe Illustrator 25.4.1, SVG Export Plug-In . SVG Version: 6.00 Build 0)  -->
<svg version="1.1" id="Layer_1" xmlns="http://www.w3.org/2000/svg" xmlns:xlink="http://www.w3.org/1999/xlink" x="0px" y="0px"
	 viewBox="0 0 512 512" style="enable-background:new 0 0 512 512;" xml:space="preserve">
<style type="text/css">
	.st0{fill:#131313;}
</style>
<path class="st0" d="M444.9,109.8L338.2,3.1c-2-2-4.7-3.1-7.5-3.1h-224C83.1,0,64,19.1,64,42.7v426.7c0,23.6,19.1,42.6,42.7,42.7
	h298.7c23.6,0,42.6-19.1,42.7-42.7v-352C448,114.5,446.9,111.8,444.9,109.8z M341.3,36.4l70.2,70.2h-48.9
	c-11.8,0-21.3-9.6-21.3-21.3L341.3,36.4z M426.7,469.3c0,11.8-9.6,21.3-21.3,21.3H106.7c-11.8,0-21.3-9.6-21.3-21.3V42.7
	c0-11.8,9.6-21.3,21.3-21.3H320v64c0,23.6,19.1,42.6,42.7,42.7h64L426.7,469.3z"/>
</svg>
