<svg id="Layer_1" data-name="Layer 1" xmlns="http://www.w3.org/2000/svg" width="180.62mm" height="180.62mm" viewBox="0 0 512 512"><path d="M439.66,91.21,351.43,3a10.2,10.2,0,0,0-7.21-3H79.55A10.2,10.2,0,0,0,69.36,10.2V501.8A10.2,10.2,0,0,0,79.55,512h352.9a10.2,10.2,0,0,0,10.19-10.2V98.42A10.2,10.2,0,0,0,439.66,91.21ZM354.42,34.82l53.4,53.4h-53.4ZM422.25,491.6H89.75V20.4H334v78a10.2,10.2,0,0,0,10.2,10.2h78Z"/><path d="M311.6,271.14l75.74-93.53A10.2,10.2,0,0,0,379.41,161h-85a10.21,10.21,0,0,0-7.93,3.78L256,202.48l-30.53-37.71a10.21,10.21,0,0,0-7.93-3.78H132.59a10.2,10.2,0,0,0-7.93,16.62l75.74,93.53-75.74,93.53a10.2,10.2,0,0,0,7.93,16.62h84.95a10.21,10.21,0,0,0,7.93-3.78L256,339.8l30.53,37.71a10.21,10.21,0,0,0,7.93,3.78h85a10.21,10.21,0,0,0,7.93-16.62Zm-12.28-89.75H358l-59.55,73.54-29.36-36.25Zm-86.64,179.5H154l59.55-73.54,29.36,36.25Zm86.64,0L154,181.39h58.71L358,360.89Z"/></svg>