<svg xmlns="http://www.w3.org/2000/svg" width="30" height="30" viewBox="0 0 30 30">
  <defs>
    <style>
      .cls-1 {
        fill: #fff;
        fill-rule: evenodd;
      }
    </style>
  </defs>
  <path id="icon-mail" class="cls-1" d="M1445.65,23h-27.29a0.343,0.343,0,0,0-.35.346V41.655a0.343,0.343,0,0,0,.35.346h27.29a0.35,0.35,0,0,0,.35-0.346V23.346A0.35,0.35,0,0,0,1445.65,23Zm-0.93.691-11.61,11.176a1.61,1.61,0,0,1-2.21,0l-11.62-11.176h25.44Zm-26.01.409,9.11,8.769-9.11,8.109V24.1Zm0.67,17.209,8.94-7.956,2.09,2.01A2.3,2.3,0,0,0,1432,36a2.263,2.263,0,0,0,1.59-.633l1.98-1.905,9.14,7.852h-25.33Zm25.92-.413-9.22-7.923,9.22-8.873V40.9Z" transform="translate(-1417 -17.5)"/>
</svg>
