<svg id="Layer_1" data-name="Layer 1" xmlns="http://www.w3.org/2000/svg" width="512" height="512" viewBox="0 0 512 512">
<defs>
    <style>
      .cls-1 {
        fill: #ff2222;
        fill-rule: evenodd;
      }
    </style>
  </defs>
  <path class="cls-1" d="M444.88,109.79,338.21,3.12A10.66,10.66,0,0,0,330.67,0h-224A42.72,42.72,0,0,0,64,42.67V469.33A42.72,42.72,0,0,0,106.67,512H405.33A42.72,42.72,0,0,0,448,469.33v-352A10.66,10.66,0,0,0,444.88,109.79ZM341.33,36.42l70.25,70.25H362.67a21.37,21.37,0,0,1-21.34-21.34Zm85.34,432.91a21.37,21.37,0,0,1-21.34,21.34H106.67a21.37,21.37,0,0,1-21.34-21.34V42.67a21.37,21.37,0,0,1,21.34-21.34H320v64A42.72,42.72,0,0,0,362.67,128h64Z"/><path class="cls-1" d="M310.39,313.14a306.39,306.39,0,0,1-25.51-22c-8.13-8.12-15.37-16-21.66-23.5,9.81-30.32,14.11-46,14.11-54.29,0-35.4-12.79-42.66-32-42.66-14.59,0-32,7.58-32,43.68,0,15.92,8.72,35.24,26,57.7-4.23,12.91-9.19,27.79-14.78,44.58q-4,12.08-8.69,22.4c-2.51,1.12-4.94,2.25-7.3,3.43-8.48,4.24-16.53,8.05-24,11.59C150.5,370.18,128,380.84,128,401.91c0,15.29,16.62,24.76,32,24.76,19.83,0,49.78-26.49,71.66-71.12,22.7-9,50.93-15.59,73.22-19.75,17.85,13.73,37.57,26.87,47.12,26.87,26.45,0,32-15.3,32-28.12,0-25.22-28.81-25.22-42.67-25.22C337,309.33,325.49,310.6,310.39,313.14ZM160,405.33c-6.09,0-10.22-2.87-10.67-3.42,0-7.57,22.56-18.25,44.37-28.59l4.22-2C181.9,394.56,166.05,405.33,160,405.33Zm74.67-191c0-22.35,6.94-22.35,10.66-22.35,7.55,0,10.67,0,10.67,21.33,0,4.5-3,15.75-8.49,33.32C239.13,233.75,234.67,222.7,234.67,214.35ZM242.84,329c.67-1.85,1.32-3.73,1.94-5.62,4-11.88,7.52-22.55,10.7-32.15q6.65,7.31,14.31,15c2,2,7,6.5,13.57,12.13C270.21,321.21,256.22,324.76,242.84,329Zm119.83,5.55c0,4.79,0,6.78-9.9,6.85-2.91-.63-9.62-4.59-17.92-10.23,3-.34,5.23-.5,6.48-.5C357.09,330.67,361.56,332.21,362.67,334.55Z"/></svg>