<svg xmlns="http://www.w3.org/2000/svg" width="30" height="30" viewBox="0 0 30 30">
  <defs>
    <style>
      .cls-1 {
        fill: #fff;
        fill-rule: evenodd;
      }
    </style>
  </defs>
  <path id="icon-search" class="cls-1" d="M1342.67,28.222l-11.45-10.946a1.042,1.042,0,0,0-1.44,0l-11.45,10.946a1.043,1.043,0,0,0,.72,1.8h1.04V40.964a1.044,1.044,0,0,0,1.04,1.043h18.74a1.047,1.047,0,0,0,1.05-1.043V30.018h1.04A1.04,1.04,0,0,0,1342.67,28.222Zm-2.8.753V40.964h-18.74V28.975h-2.08l11.45-10.946,11.46,10.946h-2.09ZM1324.25,32.1a5.722,5.722,0,0,0,9.39,4.4l3.26,3.263a0.522,0.522,0,0,0,.74-0.737l-3.26-3.263a5.73,5.73,0,1,0-10.13-3.666h0Zm10.42,0a4.685,4.685,0,1,1-4.69-4.691A4.694,4.694,0,0,1,1334.67,32.1Z" transform="translate(-1315.515 -14.5)"/>
</svg>
