<svg width="271" height="64" viewBox="0 0 271 64" fill="none" xmlns="http://www.w3.org/2000/svg">
<g clip-path="url(#clip0_803_99)">
<g clip-path="url(#clip1_803_99)">
<path d="M0 64.0002C0.366762 43.0284 0.279703 22.0321 0.353179 1.05669C0.281555 0.247782 0.408131 0.0692464 0.995321 0.0900347C4.94018 0.201925 8.89862 0.351724 12.841 0.283856C13.1269 0.238611 13.2547 0.396969 13.2479 0.785833C13.2609 6.40236 13.1182 12.0568 13.1862 17.6556C13.2831 17.6097 13.4029 17.5987 13.4733 17.5113C14.05 16.7978 14.6118 16.0592 15.1904 15.3481C16.9476 13.2839 18.6141 11.106 20.3207 9.01068C21.8143 7.3788 23.3555 5.79399 24.896 4.23181C25.9506 3.24436 27.0429 2.33273 28.1166 1.38319C28.9125 0.6984 29.3255 -0.0512036 30.4888 0.0955378C43.4187 0.424483 56.3258 -0.041421 69.2563 0.0441781C69.7182 0.0943147 70.503 -0.22607 70.6295 0.35417C70.6604 2.59136 70.6678 4.82856 70.6913 7.06575C70.8104 11.4631 70.7086 15.8617 70.7734 20.2596C70.7438 32.9197 70.8611 45.5811 70.9623 58.2418C70.9765 59.7875 71.0031 61.3337 71 62.8794C71 63.0201 70.8216 63.2823 70.7265 63.2823C61.4543 63.2524 52.1821 63.1112 42.9124 63.1643C37.8549 63.5599 32.761 63.2206 27.7029 63.4853C27.5232 63.4701 27.2979 63.4774 27.175 63.3368C25.6931 61.6333 24.1946 59.9489 22.7621 58.1672C19.8249 54.3464 17.0069 50.3605 14.6736 46.1142C14.4019 45.4955 13.5276 44.6682 13.8092 43.9742C16.6858 39.9144 19.4835 35.8044 22.32 31.7165C22.6034 31.3062 22.7189 31.3105 22.9529 31.7819C25.0837 36.5577 28.024 40.8988 31.4279 44.8339C37.1023 51.1554 42.9958 57.1412 50.394 61.4511C51.3307 62.0583 52.3124 61.818 53.2775 61.8651C54.1962 61.9097 55.1168 61.8583 56.0368 61.859C60.5714 61.8694 64.6119 61.8969 69.147 61.9397C69.5021 61.9433 69.641 61.8535 69.641 61.2757C69.6583 55.9722 69.7367 51.1572 69.6824 45.8531C69.4632 31.0017 69.8448 16.6321 69.4879 1.78673C69.4798 1.63693 69.3027 1.38319 69.2057 1.38197C68.1752 1.36974 67.638 1.40826 66.6075 1.41438C64.6391 1.42599 62.6707 1.39603 60.7023 1.40337C58.3399 1.40765 55.9763 1.52565 53.6146 1.5012C51.7734 1.56234 50.1013 3.1661 48.567 4.14621C38.234 11.6172 29.0773 20.6069 21.1321 30.537C13.2281 41.0272 6.44057 52.3354 0.435916 64.0002H0Z" fill="#77BE4E"/>
<path d="M56.8703 25.5336C57.7693 25.1166 58.2947 24.3223 58.6158 23.0946C58.9295 23.9157 58.9684 24.6274 58.7782 25.3697C58.3824 26.9117 57.5198 27.6693 56.4288 28.0765C56.1317 28.1872 55.8668 28.3689 55.6576 28.6054C54.8679 29.5176 53.9627 30.1101 53.0026 30.5668C52.8746 30.6253 52.7616 30.7119 52.6723 30.8199C54.1443 31.5597 55.5508 30.8529 57.016 30.3919C57.2136 29.997 59.166 28.587 59.4327 28.7258C59.3901 29.4338 59.0159 29.8796 58.7097 30.3546C57.5124 32.2072 55.9423 33.0449 54.206 33.3445C53.2243 33.5151 52.2623 33.2295 51.3244 32.848C50.0185 32.3161 48.7379 32.3344 47.4345 32.9128C45.9872 33.5548 44.769 34.7379 43.5125 35.844C43.4057 35.9381 43.2951 36.0421 43.1754 36.0886C43.0556 36.135 42.8555 36.1576 42.8351 36.0977C42.782 35.9406 42.7487 35.6606 42.8135 35.5572C43.0247 35.2228 43.2587 34.8926 43.5279 34.6566C44.4726 33.8293 45.4272 33.021 46.3941 32.2433C47.9377 31.0021 49.5962 30.1419 51.3077 29.4626C52.5939 28.9533 53.7899 28.1749 54.6549 26.7454C55.2872 25.7005 55.6471 24.4831 55.5811 23.0035C55.5094 21.3276 54.9327 20.1298 54.072 19.1198C53.8251 18.8275 53.4546 18.7321 53.1459 18.5358C53.0554 18.466 52.9714 18.3885 52.8946 18.3041C52.9835 18.235 53.0767 18.0975 53.1594 18.1085C53.6102 18.1696 54.0955 18.1421 54.4975 18.3775C55.0692 18.7119 55.4397 18.3775 55.8015 17.9128C56.5807 16.9144 56.7956 15.6628 56.661 14.1691C56.9005 14.5555 57.1685 14.9144 57.3741 15.3308C58.0261 16.6557 57.8409 18.3983 56.9722 19.4652C56.8228 19.6486 56.598 19.9213 56.6153 20.1164C56.6548 20.5493 56.8215 20.9626 56.9574 21.3704C56.9648 21.3949 57.1926 21.3472 57.2624 21.2536C57.7335 20.6257 57.949 19.8174 58.0792 18.9522C58.1132 18.7309 58.1811 18.5193 58.254 18.2185C58.3454 18.3732 58.3948 18.4288 58.4182 18.5004C59.0974 20.5707 58.7516 22.4887 57.3124 23.7635C57.1784 23.8821 57.0926 24.1566 57.0401 24.3829C56.9629 24.7118 56.9376 25.0628 56.8703 25.5336Z" fill="#77BE4E"/>
<path d="M49.8316 21.3545C49.2876 21.9696 48.7683 22.6348 48.1935 23.1888C47.1834 24.161 46.1078 23.722 45.0612 23.3019C43.9726 22.8654 42.9742 23.0249 42.0536 23.9653C41.9517 24.0692 41.8283 24.1341 41.7153 24.2166C41.6887 24.1775 41.6628 24.1383 41.6362 24.0998C41.7832 23.8143 41.9153 23.5104 42.0808 23.2469C42.471 22.6263 42.8174 21.9097 43.2897 21.4395C44.2159 20.5187 45.2866 20.5114 46.3591 20.8996C46.6332 20.9993 46.8073 20.9168 46.9098 20.5676C47.5804 18.2834 48.9128 17.1021 50.5225 16.3024C51.2795 15.9263 51.9883 15.3534 52.6996 14.8215C52.854 14.7065 52.9367 14.3935 53.0349 14.1569C53.3387 13.4232 53.4498 12.6405 53.3949 11.7974C53.2862 10.1319 51.7981 8.60577 50.4774 9.37922C50.1742 9.54629 49.8872 9.74095 49.6204 9.96068C49.2925 10.2444 49.1413 10.9646 49.2598 11.4733C49.4136 12.1361 49.9174 12.4516 50.5182 12.207C50.8269 12.0848 51.1171 11.864 51.448 11.669C51.4536 11.7607 51.4888 11.9068 51.4653 12.0322C51.3048 12.898 50.5392 13.7063 49.8909 13.7166C49.6902 13.7203 49.4889 13.7111 49.2882 13.7264C48.856 13.7601 48.6035 13.4268 48.4528 12.9279C48.0867 11.713 48.3763 10.6235 49.0839 9.70877C49.8433 8.72744 50.7794 8.35264 51.779 8.43151C52.5243 8.48366 53.2528 8.67537 53.9259 8.99647C54.5501 9.30218 54.9755 10.0683 55.2842 10.8919C55.851 12.4051 55.772 13.9282 55.0904 15.2849C54.8082 15.8462 54.2741 16.2559 53.7937 16.5176C52.8818 17.0128 51.9124 17.3051 50.9899 17.7685C49.9884 18.2711 48.9956 18.8287 48.1719 19.8076C47.9841 20.0281 47.8253 20.2714 47.6995 20.5316C47.5143 20.9174 47.5921 21.1161 47.9317 21.1356C48.4948 21.1693 49.0585 21.157 49.6223 21.1644C49.6649 21.1644 49.7075 21.1742 49.7507 21.1791L49.8316 21.3545Z" fill="#77BE4E"/>
<path d="M40.4656 44.9725C40.6872 44.5818 40.8854 44.1593 41.1349 43.8059C41.732 42.9603 42.2994 42.0463 42.9804 41.3468C43.7214 40.588 44.5537 39.9858 45.3823 39.4153C46.4017 38.7146 47.4717 38.1766 48.6128 37.9626C49.521 37.792 50.4287 37.7015 51.3295 38.0054C52.3366 38.3435 53.3375 38.7238 54.355 39.0191C54.9231 39.1842 55.5109 39.2294 56.0913 39.3028C57.0495 39.4251 57.9547 39.0845 58.8451 38.651C59.586 38.2891 60.3331 37.9283 61.0679 37.5389C61.2945 37.4196 61.4951 37.2075 61.7088 37.0412C61.8039 36.9672 61.9002 36.8522 61.9996 36.8443C62.1391 36.8339 62.2818 36.9054 62.4232 36.9421C62.3565 37.106 62.3188 37.3389 62.2169 37.4221C61.71 37.8385 61.1988 38.2524 60.6653 38.5966C59.9416 39.0631 59.2106 39.5241 58.4567 39.8806C56.8161 40.6596 55.128 41.1835 53.3936 41.37C52.7484 41.4397 52.097 41.4086 51.4505 41.4312C50.1385 41.4721 48.8184 41.4086 47.5162 41.5883C45.9392 41.8066 44.3728 42.1954 43.0088 43.4745C42.4823 43.9739 41.9253 44.4409 41.3411 44.8729C41.0941 45.0508 40.7854 45.0508 40.5045 45.1315L40.4656 44.9725Z" fill="#77BE4E"/>
<path d="M37.5024 43.3688C37.8439 42.8436 38.1532 42.2682 38.533 41.8029C39.862 40.1638 41.3792 38.6834 43.0539 37.3915C44.7259 36.1039 46.4782 35.1941 48.3781 34.911C49.8668 34.6897 51.3647 34.7887 52.8064 35.3586C54.045 35.8477 55.2805 35.8226 56.5395 35.7254C58.4474 35.5829 60.1991 34.6138 61.973 33.7921C62.6905 33.4595 63.3456 32.875 64.0408 32.4427C64.1748 32.3589 64.4422 32.3552 64.5132 32.4714C64.6787 32.7423 64.4984 32.9355 64.3193 33.0828C62.6843 34.417 60.9357 35.339 59.1068 36.0586C57.3002 36.7703 55.4639 36.9232 53.6116 36.9758C52.712 37.0027 51.8099 36.815 50.9078 36.7624C49.3253 36.67 47.744 36.7214 46.243 37.5126C44.8414 38.2518 43.4262 38.98 42.0901 39.9094C40.9577 40.6987 39.9364 41.787 38.8522 42.7115C38.4589 43.0466 38.0242 43.2893 37.608 43.5748L37.5024 43.3688Z" fill="#77BE4E"/>
<path d="M62.1045 40.9396C62.0032 41.5816 61.7667 41.9282 61.4599 42.1477C60.9437 42.5177 60.422 42.8925 59.8749 43.156C58.7672 43.6891 57.657 44.2388 56.5197 44.6197C54.7161 45.2238 52.8768 45.1975 51.0578 44.7463C49.8494 44.4467 48.6467 44.1807 47.4192 44.3825C47.0754 44.4399 46.7467 44.5646 46.4523 44.7493C45.8089 45.1535 45.1896 45.6316 44.5524 46.0572C44.3215 46.2113 44.0683 46.3017 43.825 46.4191L43.7861 46.2804C43.9714 46.0125 44.1294 45.7038 44.3418 45.4855C44.9062 44.8949 45.4458 44.2015 46.0812 43.8102C46.8697 43.3278 47.7328 42.9408 48.5855 42.8319C49.4882 42.7133 50.4156 42.986 51.3338 43.0533C52.489 43.1376 53.6461 43.2489 54.8013 43.2324C55.7891 43.2242 56.7735 43.1162 57.7392 42.9102C58.8246 42.6711 59.9039 42.3293 60.8999 41.6213C61.2543 41.3639 61.6457 41.1945 62.1045 40.9396Z" fill="#77BE4E"/>
<path d="M50.7854 19.7172C52.3222 19.4347 53.8973 20.2424 54.1486 22.8354C54.2974 24.3683 53.6423 25.6052 52.6321 26.1016C51.7369 26.5419 50.8885 27.1698 50.0265 27.7354C49.3115 28.2049 48.612 28.7228 47.8926 29.1789C47.6728 29.3177 47.3795 29.5611 47.1844 29.1221C47.0424 28.8029 47.2826 28.2924 47.6216 28.0906C48.2643 27.7078 48.9114 27.3355 49.5455 26.9289C50.1148 26.562 50.6569 26.1059 51.2336 25.7672C51.9968 25.3239 52.4068 23.4762 52.2833 22.5921C52.1598 21.708 51.9499 20.9052 51.3343 20.416C51.1379 20.2601 50.9916 19.988 50.7854 19.7172Z" fill="#77BE4E"/>
</g>
<path d="M94.54 40.984C93.28 43.168 91.712 45.268 89.92 47.032C89.668 47.256 89.304 47.62 88.968 47.62C88.436 47.62 87.148 46.472 87.148 45.996C87.148 45.716 87.624 45.324 87.82 45.156C90.032 43.084 92.16 40.704 93.644 38.072C93.7 37.988 93.728 37.932 93.728 37.82C93.728 37.512 93.476 37.428 93.224 37.428H92.552C91.572 37.428 90.564 37.484 89.556 37.484C88.828 37.484 88.856 37.092 88.856 36.14C88.856 35.132 88.828 34.768 89.556 34.768C90.564 34.768 91.572 34.824 92.552 34.824H94.148C94.68 34.824 94.932 34.6 94.932 34.04V32.024C94.932 31.464 94.68 31.24 94.148 31.24H92.72C92.132 31.24 91.908 31.38 91.684 31.94C91.04 33.62 90.928 34.012 90.424 34.012C90.004 34.012 88.436 33.676 88.436 33.116C88.436 33.004 88.52 32.836 88.576 32.724C89.472 30.708 90.396 27.852 90.62 25.64C90.648 25.304 90.62 24.912 91.04 24.912C91.348 24.912 92.608 25.164 93 25.248C93.224 25.276 93.784 25.36 93.784 25.696C93.784 25.836 93.616 25.92 93.504 26.004C93.196 26.172 93.168 26.228 93.056 26.844C93 27.096 92.944 27.432 92.832 27.936C92.832 27.992 92.804 28.076 92.804 28.132C92.804 28.524 93.084 28.664 93.448 28.664H94.148C94.68 28.664 94.932 28.44 94.932 27.908V26.788C94.932 26.088 94.932 25.416 94.82 24.744V24.464C94.82 24.128 95.044 24.1 95.296 24.1C95.744 24.1 97.032 24.184 97.536 24.212C97.76 24.24 98.208 24.24 98.208 24.576C98.208 24.744 98.068 24.828 97.9 24.94C97.592 25.164 97.564 25.724 97.564 26.732V27.908C97.62 28.44 97.816 28.664 98.348 28.664H99.692C100.756 28.664 101.848 28.608 102.912 28.608C103.556 28.608 103.556 28.916 103.556 29.98C103.556 30.988 103.556 31.296 102.912 31.296C101.848 31.296 100.784 31.24 99.692 31.24H98.348C97.816 31.24 97.564 31.464 97.564 32.024V34.04C97.62 34.6 97.816 34.824 98.348 34.824H100.7C101.68 34.824 102.688 34.768 103.696 34.768C104.424 34.768 104.396 35.16 104.396 36.14C104.396 37.064 104.424 37.484 103.696 37.484C102.688 37.484 101.708 37.428 100.7 37.428H99.188C98.936 37.428 98.684 37.512 98.684 37.82C98.684 37.904 98.712 37.988 98.768 38.072C100.252 40.732 102.184 43.14 104.34 45.268C104.48 45.408 104.844 45.772 104.844 45.968C104.844 46.416 103.5 47.592 102.968 47.592C102.66 47.592 101.988 46.808 101.624 46.36L101.428 46.164C99.916 44.652 99.02 42.944 97.956 41.096C97.9 41.04 97.844 40.984 97.76 40.984C97.62 40.984 97.592 41.096 97.564 41.208V44.092C97.564 45.52 97.648 46.92 97.648 48.348C97.648 49.104 97.368 49.132 96.276 49.132C95.128 49.132 94.848 49.132 94.848 48.348C94.848 46.92 94.932 45.52 94.932 44.092V41.124C94.904 40.984 94.876 40.872 94.736 40.872C94.652 40.872 94.596 40.928 94.54 40.984ZM86.084 33.424C86.868 34.88 87.932 36.42 88.996 37.68C89.108 37.82 89.248 37.96 89.248 38.156C89.248 38.548 88.324 40.004 87.932 40.004C87.568 40.004 86.476 38.128 86.252 37.736C86.224 37.68 86.168 37.624 86.084 37.624C85.944 37.624 85.888 37.736 85.888 37.876V44.456C85.888 45.772 85.944 47.06 85.944 48.376C85.944 49.16 85.636 49.188 84.6 49.188C83.424 49.188 83.144 49.16 83.144 48.348C83.144 47.06 83.228 45.772 83.228 44.456V38.464C83.228 38.324 83.144 38.296 83.116 38.296C83.06 38.296 83.004 38.324 82.976 38.38C82.444 39.836 81.884 41.264 81.156 42.636C81.044 42.86 80.848 43.168 80.568 43.168C80.092 43.168 79 41.796 79 41.46C79 41.236 79.308 40.732 79.42 40.536C80.876 38.072 81.884 35.384 82.696 32.668C82.696 32.584 82.724 32.528 82.724 32.444C82.724 32.08 82.416 31.968 82.108 31.94C81.492 31.94 80.848 31.996 80.288 31.996C79.7 31.996 79.728 31.548 79.728 30.624C79.728 29.644 79.7 29.252 80.316 29.252C80.708 29.252 81.408 29.308 82.164 29.308H82.444C83.004 29.308 83.228 29.084 83.228 28.524V26.564C83.228 25.892 83.228 25.248 83.144 24.688C83.116 24.604 83.116 24.492 83.116 24.408C83.116 24.128 83.34 24.072 83.564 24.072C83.9 24.072 85.468 24.24 85.888 24.268C86.14 24.296 86.588 24.296 86.588 24.632C86.588 24.828 86.448 24.884 86.196 25.052C85.916 25.248 85.888 25.696 85.888 26.592V28.524C85.888 29.028 86.084 29.28 86.616 29.308C86.84 29.308 87.876 29.252 88.016 29.252C88.66 29.252 88.604 29.7 88.604 30.624C88.604 31.576 88.66 31.996 88.016 31.996C87.876 31.996 86.784 31.94 86.588 31.94C86.28 31.996 85.916 32.024 85.888 32.668C85.86 32.976 85.916 33.172 86.084 33.424Z" fill="black"/>
<path d="M129.092 27.544C129.092 28.02 127.664 28.944 127.216 28.944C126.992 28.944 126.852 28.776 126.74 28.608C125.956 27.628 125.144 26.676 124.304 25.752C124.164 25.612 123.968 25.444 123.968 25.248C123.968 24.772 125.312 23.904 125.76 23.904C125.956 23.904 126.124 24.016 126.264 24.156C127.048 24.94 127.776 25.808 128.504 26.676C128.672 26.872 129.092 27.292 129.092 27.544ZM114.784 38.716V43.112C114.784 43.448 114.952 43.756 115.344 43.756H115.54C115.988 43.644 119.684 42.804 119.712 42.804C120.244 42.804 120.272 44.148 120.272 44.512C120.272 45.1 120.104 45.212 119.572 45.38C117.332 46.024 111.9 47.144 109.548 47.508C108.736 47.648 108.624 47.648 108.484 48.068C108.428 48.264 108.344 48.404 108.148 48.404C107.84 48.404 107.728 48.18 107.588 47.704C107.476 47.396 106.916 45.688 106.916 45.492C106.916 45.1 107.364 45.044 108.456 44.932C109.128 44.848 110.052 44.792 111.284 44.54C111.844 44.428 112.012 44.176 112.012 43.644V38.716C112.012 38.184 111.76 37.932 111.228 37.932H111.088C110.164 37.932 109.212 38.016 108.26 38.016C107.616 38.016 107.644 37.652 107.644 36.644C107.644 35.664 107.616 35.272 108.232 35.272C109.128 35.272 110.136 35.328 111.088 35.328H115.428C116.408 35.328 117.416 35.272 118.284 35.272C118.9 35.272 118.872 35.636 118.872 36.644C118.872 37.652 118.9 38.016 118.284 38.016C117.36 38.016 116.464 37.932 115.568 37.932C115.036 37.988 114.784 38.184 114.784 38.716ZM122.232 28.384C122.288 28.916 122.512 29.112 123.044 29.112H127.104C128.252 29.112 129.428 29.056 130.576 29.056C131.248 29.056 131.22 29.42 131.22 30.428C131.22 31.464 131.248 31.828 130.576 31.828C129.428 31.828 128.252 31.772 127.104 31.772H123.324C122.932 31.772 122.652 31.912 122.652 32.36V32.5C123.24 36.224 124.08 39.92 125.648 43.364C125.9 43.896 126.796 45.772 127.44 45.772C128.42 45.772 128.728 43.056 128.784 42.328C128.84 41.852 128.84 41.516 129.428 41.516C129.792 41.516 130.184 41.6 130.52 41.768C131.052 42.02 131.276 42.244 131.276 42.804C131.276 43.616 131.024 44.792 130.8 45.548C130.324 47.172 129.484 48.964 127.552 48.964C125.844 48.964 124.696 47.34 123.912 46.052C121.7 42.44 120.412 36.672 119.796 32.5C119.712 31.94 119.46 31.772 118.928 31.772H110.64C109.492 31.772 108.344 31.828 107.168 31.828C106.496 31.828 106.524 31.492 106.524 30.456C106.524 29.392 106.496 29.056 107.168 29.056C108.344 29.056 109.492 29.112 110.64 29.112H118.648C119.18 29.112 119.376 28.888 119.376 28.356C119.376 28.328 119.124 24.716 119.124 24.66C119.124 24.268 119.376 24.156 119.74 24.156C119.908 24.156 121.7 24.268 121.98 24.296C122.232 24.296 122.736 24.38 122.736 24.716C122.736 24.94 122.54 25.052 122.316 25.164C122.092 25.332 122.092 25.556 122.092 25.808C122.092 26.228 122.176 27.852 122.232 28.384Z" fill="black"/>
<path d="M144.688 41.376C144.184 42.44 143.512 43.784 142.952 44.792C142.896 44.876 142.868 44.932 142.868 45.044C142.868 45.324 143.064 45.408 143.316 45.408C145.5 45.296 147.712 45.128 149.924 44.904C150.148 44.876 150.316 44.792 150.316 44.512C150.316 44.288 150.204 44.176 150.064 44.036C149.672 43.56 148.832 42.524 148.832 42.356C148.832 41.88 150.484 41.096 150.96 41.096C151.24 41.096 151.436 41.264 151.604 41.488C152.332 42.356 153.2 43.504 153.844 44.428C154.208 44.932 156.14 47.648 156.14 48.04C156.14 48.572 154.348 49.272 153.9 49.272C153.564 49.272 153.424 49.048 153.004 48.376C152.92 48.236 152.808 48.04 152.668 47.844C152.444 47.48 152.22 47.256 151.772 47.256C151.688 47.256 151.632 47.284 151.576 47.284C149.28 47.508 147.012 47.732 144.716 47.928C142.364 48.124 140.432 48.292 137.744 48.488C137.492 48.516 137.38 48.6 137.212 48.88C137.128 48.992 137.044 49.104 136.904 49.104C136.596 49.104 136.512 48.712 136.316 48.068C136.232 47.844 135.868 46.36 135.868 46.136C135.868 45.744 136.064 45.828 137.268 45.744L138.556 45.66C139.144 45.632 139.368 45.492 139.648 44.988C140.432 43.616 141.076 42.244 141.748 40.816C141.776 40.732 141.804 40.676 141.804 40.564C141.804 40.256 141.552 40.172 141.272 40.144H139.06C137.912 40.144 136.736 40.2 135.588 40.2C134.944 40.2 134.972 39.696 134.972 38.828C134.972 37.904 134.944 37.428 135.588 37.428C136.736 37.428 137.912 37.484 139.06 37.484H152.276C153.452 37.484 154.6 37.428 155.776 37.428C156.42 37.428 156.392 37.932 156.392 38.828C156.392 39.696 156.42 40.2 155.776 40.2C154.6 40.2 153.452 40.144 152.276 40.144H145.304C145.22 40.144 145.192 40.144 145.192 40.2C145.192 40.256 145.248 40.256 145.332 40.312C145.556 40.424 145.668 40.48 145.668 40.648C145.668 40.9 145.416 40.956 145.248 40.984C144.94 41.04 144.828 41.096 144.688 41.376ZM146.228 27.768C146.116 27.628 145.948 27.544 145.752 27.544C145.556 27.544 145.444 27.656 145.304 27.796C143.988 29.392 142.7 30.708 141.132 32.08C141.048 32.136 141.02 32.22 141.02 32.304C141.02 32.5 141.16 32.556 141.3 32.584C141.916 32.584 142.532 32.612 143.148 32.612H148.272C148.916 32.612 149.56 32.612 150.232 32.584C150.372 32.556 150.54 32.5 150.54 32.304C150.54 32.22 150.484 32.136 150.428 32.08C149.084 30.932 147.348 29.112 146.228 27.768ZM139.956 33.956V33.732C139.928 33.564 139.872 33.368 139.648 33.368C139.536 33.368 139.48 33.396 139.396 33.452C138.64 34.04 135.532 36.28 134.72 36.28C134.104 36.28 133.208 34.88 133.208 34.292C133.208 33.956 133.6 33.816 133.936 33.648C137.856 31.576 142.224 28.076 144.436 24.184C144.548 23.988 144.716 23.736 144.968 23.736C145.276 23.736 147.404 24.268 147.852 24.38C148.048 24.436 148.272 24.548 148.272 24.772C148.272 25.052 147.964 25.136 147.74 25.192C147.656 25.22 147.6 25.276 147.6 25.36C147.6 25.416 147.6 25.444 147.628 25.472C150.26 28.86 153.704 31.632 157.568 33.452C158.212 33.76 158.492 33.844 158.492 34.18C158.492 34.712 157.736 36.336 157.12 36.336C156.308 36.336 152.78 33.9 151.968 33.312C151.912 33.256 151.856 33.228 151.772 33.228C151.548 33.228 151.492 33.424 151.464 33.592V34.18C151.464 34.88 151.408 35.244 150.876 35.244C150.176 35.244 149.112 35.188 148.272 35.188H143.148C142.28 35.188 141.3 35.244 140.516 35.244C139.956 35.244 139.956 34.74 139.956 33.956Z" fill="black"/>
<path d="M179.604 32.248H180.248C181.256 32.248 182.292 32.192 183.328 32.192C184 32.192 183.972 32.528 183.972 33.592C183.972 34.656 184 34.992 183.328 34.992C182.292 34.992 181.284 34.936 180.248 34.936H179.604C179.044 34.936 178.82 35.16 178.82 35.72V44.54C178.82 45.1 179.044 45.324 179.604 45.324H181.34C182.376 45.324 183.412 45.24 184.448 45.24C185.12 45.24 185.092 45.632 185.092 46.64C185.092 47.704 185.12 48.068 184.448 48.068C183.412 48.068 182.376 47.984 181.34 47.984H172.716C171.708 47.984 170.672 48.068 169.636 48.068C168.964 48.068 168.992 47.704 168.992 46.64C168.992 45.604 168.964 45.24 169.636 45.24C170.672 45.24 171.708 45.324 172.716 45.324H175.18C175.712 45.324 175.936 45.1 175.936 44.54V35.72C175.936 35.16 175.712 34.936 175.18 34.936H174.928C173.92 34.936 172.884 34.992 171.848 34.992C171.148 34.992 171.204 34.656 171.204 33.592C171.204 32.528 171.148 32.192 171.848 32.192C172.884 32.192 173.92 32.248 174.928 32.248H175.18C175.712 32.248 175.936 32.024 175.936 31.492V26.788C175.936 26.088 175.936 25.388 175.852 24.856C175.824 24.744 175.824 24.66 175.824 24.576C175.824 24.24 176.048 24.184 176.328 24.184C176.664 24.184 178.596 24.38 178.988 24.436C179.184 24.464 179.464 24.52 179.464 24.772C179.464 24.968 179.296 25.052 179.128 25.22C178.848 25.444 178.82 26.032 178.82 26.984V31.492C178.82 32.024 179.044 32.248 179.604 32.248ZM167.368 39.724C167.284 39.668 167.228 39.612 167.116 39.612C166.92 39.612 166.864 39.808 166.836 39.948V44.904C166.836 46.052 166.92 47.2 166.92 48.376C166.92 49.188 166.64 49.216 165.436 49.216C164.26 49.216 163.952 49.188 163.952 48.376C163.952 47.228 164.036 46.052 164.036 44.904V41.096C164.008 40.928 163.952 40.732 163.728 40.732C163.616 40.732 163.56 40.788 163.476 40.844C163.056 41.236 162.076 42.244 161.544 42.244C160.984 42.244 159.864 40.9 159.864 40.48C159.864 40.144 160.312 39.864 160.564 39.668C162.608 38.128 165.268 35.328 166.724 33.2C166.864 33.004 167.48 32.108 167.48 31.884C167.48 31.688 167.172 31.66 166.836 31.66H163.672C162.776 31.66 161.74 31.744 161.04 31.744C160.396 31.744 160.452 31.352 160.452 30.316C160.452 29.28 160.424 28.944 161.012 28.944C161.544 28.944 162.58 29.028 163.308 29C163.868 29 164.064 28.776 164.064 28.216V26.48C164.064 25.892 164.064 25.276 163.98 24.688C163.952 24.604 163.952 24.52 163.952 24.436C163.952 24.1 164.176 24.044 164.428 24.044C164.96 24.044 166.444 24.212 167.004 24.268C167.284 24.296 167.676 24.324 167.676 24.688C167.676 24.94 167.452 25.052 167.2 25.22C166.92 25.416 166.892 25.724 166.892 26.508V28.216C166.892 28.748 167.088 29 167.62 29C168.18 29.028 168.712 28.972 169.244 28.972C170.476 28.972 171.092 30.4 171.092 30.736C171.092 31.716 168.74 34.992 168.04 35.86C167.928 36.056 167.816 36.196 167.816 36.42C167.816 36.644 167.956 36.812 168.096 36.98C169.244 38.072 170.028 38.772 171.316 39.724C171.512 39.864 171.792 40.088 171.792 40.34C171.792 40.816 170.728 42.104 170.14 42.104C169.664 42.104 167.76 40.172 167.368 39.724Z" fill="black"/>
<path d="M207.164 34.86C206.204 40.74 203.604 44.9 198.444 47.94C197.644 48.42 195.324 49.74 194.444 49.74C193.004 49.74 191.164 46.46 191.164 45.46C191.164 44.86 191.724 44.7 192.204 44.54C196.244 43.14 199.644 40.54 200.884 36.38C201.084 35.78 201.404 34.18 201.404 33.58C201.404 32.54 200.684 32.5 199.844 32.5H196.444C195.124 32.5 193.764 32.62 192.524 32.62C191.764 32.62 191.684 32.14 191.684 30.86V28.7C191.684 27.5 191.764 27.02 192.524 27.02C193.604 27.02 195.044 27.14 196.444 27.14H205.444C206.044 27.14 206.564 26.62 206.564 26.02V17.9C206.564 16.82 206.564 15.66 206.444 14.82C206.404 14.7 206.404 14.54 206.404 14.42C206.404 13.9 206.764 13.82 207.204 13.82C207.484 13.82 207.924 13.86 208.204 13.9C209.644 14.02 211.084 14.14 212.524 14.3C212.844 14.34 213.324 14.42 213.324 14.86C213.324 15.14 213.164 15.22 212.884 15.5C212.564 15.78 212.484 16.62 212.484 17.54C212.484 18.14 212.524 18.78 212.524 19.38V26.02C212.524 26.62 213.004 27.14 213.644 27.14H222.404C223.844 27.14 225.244 27.02 226.324 27.02C227.044 27.02 227.124 27.5 227.124 28.42V31.06C227.124 32.22 227.044 32.62 226.324 32.62C225.084 32.62 223.724 32.5 222.404 32.5H216.804C216.204 32.5 215.684 33.02 215.684 33.62V42.18C215.684 43.34 215.764 43.78 217.084 43.78H219.484C221.044 43.78 221.364 42.82 221.724 40.3C221.844 39.54 222.004 39.1 222.884 39.1C223.924 39.1 225.364 39.58 226.284 40.14C226.884 40.5 227.244 40.9 227.244 41.62C227.244 43.06 226.484 45.82 225.804 47.1C224.764 49.06 222.924 49.34 220.884 49.34H214.844C211.844 49.34 209.884 49.14 209.884 45.66C209.884 44.58 209.924 43.46 209.924 42.38V33.62C209.924 33.02 209.404 32.5 208.804 32.5H208.204C208.044 32.5 207.644 32.5 207.644 32.74C207.644 32.86 207.764 32.98 207.844 33.02C208.044 33.18 208.284 33.42 208.284 33.66C208.284 34.06 207.844 34.18 207.564 34.3C207.284 34.38 207.204 34.58 207.164 34.86ZM200.044 15.1C200.924 15.1 201.324 16.18 202.484 18.58C202.924 19.46 204.684 23.38 204.684 24.1C204.684 25.26 200.924 26.42 200.164 26.42C199.644 26.42 199.524 26.1 198.964 24.62C198.844 24.3 198.684 23.9 198.524 23.46C197.884 21.9 196.844 19.66 196.004 18.18C195.924 18.02 195.684 17.54 195.684 17.34C195.684 16.58 199.444 15.1 200.044 15.1ZM218.564 15.14C219.004 15.14 221.764 16.34 222.924 16.9C223.964 17.38 224.564 17.82 224.564 18.22C224.564 18.66 223.884 18.7 223.564 18.78C223.244 18.86 223.044 19.18 222.924 19.46C222.444 20.58 219.444 26.7 218.404 26.7C217.844 26.7 214.124 24.74 214.124 23.82C214.124 23.58 214.644 22.86 214.804 22.62C216.124 20.58 217.444 17.94 218.164 15.62C218.244 15.42 218.324 15.14 218.564 15.14Z" fill="black"/>
<path d="M265.364 31.18V31.06C265.364 30.82 265.364 30.54 265.004 30.54C264.884 30.54 264.804 30.58 264.724 30.66C264.244 31.02 262.804 31.74 262.244 31.74C261.764 31.74 261.604 31.18 261.404 30.66C261.164 30.06 259.684 26.14 259.284 26.14C259.084 26.14 259.084 26.34 259.084 26.98V35.42C259.084 35.74 259.084 36.38 259.524 36.38C259.964 36.38 263.764 33.22 264.364 32.7C264.844 32.26 265.364 31.9 265.364 31.18ZM253.924 26.42V21.82C253.924 20.82 253.324 20.46 252.804 20.46C251.924 20.46 250.964 20.54 250.204 20.54C249.644 20.54 249.404 20.34 249.404 19.34V17.1C249.404 16.94 249.364 16.54 249.124 16.54C248.844 16.54 248.764 16.82 248.684 17.02C248.524 17.62 247.684 19.82 247.404 20.34C247.364 20.42 247.364 20.5 247.364 20.54C247.364 20.86 247.684 20.94 247.884 20.98C248.444 21.1 248.484 21.7 248.484 22.98V23.1C248.484 23.42 248.524 23.78 248.924 23.78C249.124 23.78 249.244 23.7 249.404 23.62C249.724 23.42 250.724 22.98 251.084 22.98C251.724 22.98 252.244 24.14 253.324 26.66C253.404 26.86 253.524 27.06 253.684 27.06C253.924 27.06 253.924 26.58 253.924 26.42ZM245.124 26.74V27.02C245.124 27.66 245.524 27.9 245.884 27.9H246.524C247.804 27.9 247.924 28.22 247.924 29.54V31.46C247.924 32.74 247.764 33.02 246.524 33.02C246.244 33.02 245.964 32.98 245.764 32.98C245.564 32.98 245.124 33.1 245.124 33.7V33.94C245.124 34.34 245.324 34.62 245.764 34.62C245.924 34.62 246.724 34.42 246.924 34.34C247.124 34.3 247.644 34.18 247.844 34.18C248.284 34.18 248.444 34.78 248.484 35.14C248.524 35.46 248.604 36.02 249.044 36.02C249.604 36.02 252.444 33.5 253.004 32.98C253.724 32.34 253.924 32.02 253.924 31.26C253.924 30.98 253.764 30.74 253.444 30.74C253.204 30.74 253.044 30.82 252.884 30.94C252.444 31.18 251.404 31.7 250.964 31.7C250.604 31.7 250.444 31.46 250.364 31.18C250.084 30.26 248.924 27.42 248.484 26.54C248.124 25.82 247.724 25.82 247.004 25.82C246.604 25.82 246.204 25.78 246.004 25.78C245.524 25.78 245.124 26.1 245.124 26.74ZM244.244 14.5C244.324 14.18 244.444 13.86 244.764 13.86C245.124 13.86 247.324 14.54 247.804 14.7C248.124 14.78 249.164 15.1 249.404 15.18C249.484 15.22 249.684 15.3 250.004 15.3C250.884 15.3 251.844 15.42 253.084 15.42H254.324C255.244 15.42 256.124 15.34 257.044 15.34C258.684 15.34 259.124 15.86 259.124 17.46C259.124 18.82 259.084 20.14 259.084 21.5V22.46C259.084 22.9 259.124 23.54 259.684 23.54C259.964 23.54 260.164 23.46 260.364 23.34C260.764 23.14 261.764 22.66 262.204 22.66C262.644 22.66 262.804 23.06 263.004 23.42C263.444 24.26 264.124 25.74 264.524 26.62C264.604 26.86 264.844 27.46 265.124 27.46C265.364 27.46 265.364 27.14 265.364 26.82V21.82C265.364 21.06 265.044 20.46 264.164 20.46H263.844C262.684 20.46 261.644 20.54 260.924 20.54C260.204 20.54 260.124 20.14 260.124 18.58V16.86C260.124 15.86 260.124 15.3 260.964 15.3C261.604 15.3 262.604 15.42 263.844 15.42H265.804C266.684 15.42 267.604 15.34 268.524 15.34C270.204 15.34 270.644 15.82 270.644 17.46C270.644 18.82 270.604 20.14 270.604 21.5V40.02C270.604 41.5 270.684 42.98 270.684 44.42C270.684 46.54 270.484 48.5 268.364 49.46C266.924 50.1 265.324 50.26 263.764 50.26C261.964 50.26 261.644 50.14 261.364 49.3C261.084 48.5 260.964 47.38 260.964 46.58C260.964 45.82 260.964 44.42 262.004 44.42C262.444 44.42 263.284 44.5 263.964 44.5C265.364 44.5 265.364 44.02 265.364 41.66V39.1C265.364 38.74 265.364 38.3 265.044 38.3C264.844 38.3 264.684 38.5 264.564 38.62C264.044 39.14 263.124 39.98 262.564 40.5C262.204 40.82 262.124 40.9 261.924 41.38C261.844 41.62 261.684 42.02 261.364 42.02C261.044 42.02 260.324 40.7 259.924 39.98C259.844 39.82 259.764 39.7 259.724 39.62C259.644 39.5 259.524 39.26 259.324 39.26C259.084 39.26 259.084 39.38 259.084 40.02V40.34C259.084 41.78 259.164 43.22 259.164 44.66C259.164 47.02 258.764 48.7 256.364 49.62C255.084 50.1 253.684 50.18 252.324 50.18C250.284 50.18 249.924 50.06 249.604 49.18C249.324 48.46 249.164 47.22 249.164 46.34C249.164 45.7 249.164 44.34 250.004 44.34C250.564 44.34 251.604 44.46 252.484 44.46C253.884 44.46 253.924 43.62 253.924 42.06V39.22C253.924 39.02 253.884 38.62 253.564 38.62C253.364 38.62 251.684 40.34 251.404 40.62C250.964 41.02 250.884 41.14 250.804 41.54C250.724 41.9 250.484 42.26 250.084 42.26C249.764 42.26 249.684 42.1 248.924 40.66C248.484 39.82 248.204 39.26 247.364 39.26C247.004 39.26 246.444 39.38 245.964 39.5C244.804 39.74 244.524 40.18 244.204 41.38C243.524 44.02 242.284 46.74 240.604 48.86C240.284 49.3 239.644 50.18 239.044 50.18C238.244 50.18 235.164 47.74 235.164 46.9C235.164 46.62 235.444 46.3 235.644 46.06C237.004 44.58 238.444 41.9 238.444 41.34C238.444 41.14 238.284 41.06 238.084 41.06C237.764 41.06 237.564 41.34 237.404 41.54C237.244 41.74 237.204 41.78 237.044 41.78C236.604 41.78 236.564 41.46 236.404 40.86C236.204 40.06 235.804 38.34 235.524 37.22C235.484 37.02 235.444 36.86 235.444 36.7C235.444 36.02 235.924 35.98 238.244 35.82C238.804 35.78 239.804 35.74 239.804 34.78V34.14C239.804 33.54 239.724 32.98 239.044 32.98C238.484 32.98 237.964 33.02 237.404 33.02C236.404 33.02 236.324 32.38 236.324 31.26V29.7C236.324 28.34 236.404 27.86 237.564 27.86C238.044 27.86 238.524 27.94 239.044 27.94C239.444 27.94 239.804 27.7 239.804 27.1V26.62C239.804 25.98 239.364 25.78 239.004 25.78C238.324 25.78 237.604 25.82 236.924 25.82C235.764 25.82 235.684 25.34 235.684 24.1V22.54C235.684 21.46 235.764 20.94 236.764 20.94C237.044 20.94 237.164 20.78 237.164 20.5C237.164 20.38 237.044 19.86 237.004 19.7C236.644 18.38 236.204 17.02 235.684 15.74C235.684 15.66 235.644 15.58 235.644 15.5C235.644 14.74 239.164 13.74 239.764 13.74C240.404 13.74 240.684 14.82 241.164 16.38C241.364 16.98 241.924 18.98 241.924 19.5C241.924 20.14 241.444 20.3 240.284 20.62C240.124 20.66 239.924 20.7 239.924 20.82C239.924 21.02 240.284 21.02 240.404 21.02H241.084C241.884 21.02 242.364 20.74 242.644 19.94C243.244 18.14 243.804 16.34 244.244 14.5Z" fill="black"/>
</g>
<defs>
<clipPath id="clip0_803_99">
<rect width="270.684" height="64" fill="white"/>
</clipPath>
<clipPath id="clip1_803_99">
<rect width="71" height="64" fill="white"/>
</clipPath>
</defs>
</svg>
